<svg xmlns="http://www.w3.org/2000/svg" width="500" height="500" viewBox="0 0 500 500">
<g>
<path d="M 243.46 298.06 C242.91,298.96 240.25,299.12 237.00,298.46 C236.18,298.30 232.06,297.62 227.86,296.96 C223.66,296.30 219.63,295.39 218.91,294.94 C218.82,294.89 218.74,294.84 218.66,294.78 C217.58,293.95 218.02,291.15 225.90,240.96 L 226.18 239.19 C227.85,228.57 229.05,219.77 228.86,219.63 C228.66,219.49 221.09,218.16 212.03,216.67 C202.97,215.18 195.19,213.59 194.74,213.14 C194.30,212.70 194.70,207.71 195.64,202.05 L 197.34 191.78 L 201.92 192.37 C213.44,193.86 293.99,207.38 294.97,207.98 C295.75,208.46 295.57,211.45 294.35,218.36 C292.83,226.89 292.36,228.12 290.37,228.62 C289.13,228.93 281.00,228.06 272.31,226.68 C263.61,225.31 256.20,224.48 255.83,224.84 C255.45,225.20 254.20,231.80 253.04,239.50 C251.89,247.20 249.82,260.92 248.46,270.00 C245.51,289.70 244.25,296.79 243.46,298.06 ZM 363.80 209.91 C361.49,211.61 359.08,213.00 358.44,213.00 C357.79,213.00 348.88,201.19 338.63,186.75 C328.37,172.31 310.99,147.91 299.99,132.53 C289.00,117.14 280.00,104.20 280.00,103.76 C280.00,103.32 281.01,103.17 282.25,103.42 C283.49,103.68 287.53,104.41 291.24,105.05 C297.13,106.07 298.22,106.62 299.92,109.36 C300.99,111.09 305.47,117.45 309.87,123.50 C314.27,129.55 319.78,137.20 322.12,140.50 C324.46,143.80 328.69,149.65 331.52,153.50 C334.36,157.35 338.57,163.20 340.88,166.50 C345.78,173.51 353.73,184.80 357.78,190.50 C364.57,200.07 368.00,205.28 368.00,206.03 C368.00,206.47 366.11,208.22 363.80,209.91 ZM 328.62 210.64 C327.69,217.60 326.61,223.81 326.21,224.43 C325.22,225.99 310.85,224.37 309.45,222.54 C308.74,221.61 308.68,218.13 309.27,211.85 C310.10,203.10 310.03,202.44 308.10,200.88 C306.93,199.93 302.33,198.69 297.45,197.99 C292.35,197.27 288.65,196.25 288.36,195.49 C287.84,194.13 289.71,178.96 290.49,178.18 C291.14,177.52 305.17,179.82 313.88,182.01 C319.37,183.39 322.13,184.71 324.66,187.15 C329.99,192.32 330.59,195.86 328.62,210.64 ZM 181.92 193.95 C181.41,196.32 181.18,197.65 180.39,198.28 C179.39,199.09 177.49,198.77 173.00,198.02 C172.73,197.97 172.46,197.93 172.18,197.88 C164.12,196.54 163.03,195.69 163.66,191.25 C166.76,169.22 168.16,165.16 173.95,161.25 C176.70,159.40 178.66,159.00 184.95,159.00 C191.26,159.00 209.28,161.95 210.51,163.18 C210.76,163.43 208.43,180.82 208.05,181.60 C208.02,181.66 204.74,181.12 200.75,180.40 C196.76,179.69 191.61,179.08 189.30,179.05 C185.28,179.00 185.05,179.16 184.05,182.75 C183.48,184.81 183.01,187.04 183.01,187.70 C183.00,188.36 182.51,191.17 181.92,193.95 ZM 303.59 329.02 C301.34,330.00 298.15,331.01 296.50,331.27 C292.04,331.97 268.76,327.78 268.22,326.17 C267.61,324.33 268.93,312.73 269.94,311.09 C270.64,309.97 272.46,309.96 280.85,311.03 C288.81,312.04 291.23,312.06 292.40,311.08 C293.21,310.41 294.41,306.57 295.06,302.55 C295.71,298.53 296.55,294.73 296.93,294.11 C297.44,293.29 299.84,293.28 306.06,294.10 C310.70,294.71 314.82,295.50 315.21,295.86 C315.97,296.56 313.65,316.14 312.41,319.50 C310.85,323.72 307.53,327.32 303.59,329.02 ZM 188.32 314.25 C187.22,316.13 167.36,313.07 159.96,309.89 C157.24,308.72 153.44,306.01 151.51,303.88 C148.35,300.38 148.00,299.43 148.02,294.25 C148.04,288.49 149.53,276.15 150.63,272.62 C151.16,270.93 151.92,270.80 157.86,271.37 C164.13,271.97 166.98,272.08 168.16,273.54 C169.13,274.75 168.97,276.88 168.64,280.98 C168.60,281.51 168.56,282.06 168.51,282.66 L 167.81 292.02 L 171.16 293.40 C173.00,294.16 178.02,295.56 182.32,296.51 L 190.15 298.23 L 189.45 305.87 C189.07,310.07 188.56,313.84 188.32,314.25 ZM 278.68 156.61 C279.38,158.43 267.61,158.53 264.06,156.74 C261.99,155.69 255.09,146.47 232.44,114.50 C230.49,111.75 226.02,105.46 222.51,100.52 C219.00,95.58 216.28,91.39 216.47,91.20 C216.65,91.01 220.69,91.63 225.43,92.57 C233.27,94.13 234.32,94.62 236.87,97.89 C242.08,104.56 278.14,155.21 278.68,156.61 ZM 357.80 266.28 C355.49,267.77 353.08,269.00 352.45,269.00 C351.56,269.00 329.75,239.68 326.70,234.40 C325.99,233.16 330.91,220.00 332.09,220.00 C332.96,220.00 362.00,261.49 362.00,262.73 C362.00,263.18 360.11,264.78 357.80,266.28 Z" fill="rgb(43,47,38)" data-index="0"></path>
<path d="M 288.00 300.69 C288.00,302.57 287.48,302.98 285.25,302.91 C279.69,302.72 265.43,299.80 263.25,298.40 C259.71,296.13 253.71,283.38 254.41,279.61 C254.73,277.90 256.10,268.97 257.45,259.77 C260.20,241.09 261.42,235.72 263.28,234.18 C264.17,233.44 267.74,233.55 275.30,234.54 L 286.05 235.95 L 295.52 232.57 C300.74,230.70 305.00,229.52 305.00,229.94 C305.00,230.35 297.35,237.79 288.00,246.47 C278.65,255.15 271.00,262.82 271.00,263.52 C271.00,264.22 274.83,272.35 279.50,281.59 C284.17,290.83 288.00,299.42 288.00,300.69 ZM 206.83 283.94 C200.94,288.63 198.55,288.88 185.51,286.17 C179.22,284.86 177.44,284.10 177.16,282.61 C176.91,281.29 180.72,276.80 190.03,267.47 C201.38,256.10 203.18,253.86 202.67,251.81 C202.34,250.50 197.85,241.79 192.70,232.46 C192.16,231.48 191.64,230.55 191.15,229.66 C182.33,213.69 181.04,211.36 181.42,211.04 C181.49,210.99 181.60,210.99 181.74,211.00 C181.78,211.00 181.83,211.00 181.87,211.00 C182.39,211.00 185.93,213.60 189.73,216.77 C196.31,222.27 197.13,222.65 207.26,224.90 C213.55,226.30 218.10,227.82 218.41,228.64 C219.08,230.36 215.71,257.63 212.47,276.69 C212.08,279.00 210.52,281.01 206.83,283.94 Z" fill="rgb(79,132,20)" data-index="1"></path>
<path d="M 367.42 404.09 C365.41,406.31 365.31,406.31 353.50,404.03 C348.55,403.07 336.62,401.06 327.00,399.56 C317.38,398.06 303.20,395.75 295.50,394.43 C287.80,393.12 276.77,391.39 271.00,390.59 C265.23,389.80 252.85,387.81 243.50,386.17 C234.15,384.53 212.10,380.87 194.50,378.04 C176.90,375.21 157.10,371.99 150.50,370.88 C143.90,369.78 134.45,368.25 129.50,367.50 C90.95,361.63 77.00,358.64 77.00,356.24 C77.00,355.80 77.92,349.16 79.04,341.47 C80.17,333.79 81.53,324.35 82.07,320.50 C83.27,312.07 87.27,285.39 90.03,267.50 C91.13,260.35 93.38,245.27 95.04,234.00 C96.70,222.73 99.14,206.52 100.47,198.00 C103.24,180.33 108.60,145.67 110.07,136.00 C110.61,132.43 112.20,122.53 113.61,114.00 C115.01,105.47 116.78,93.88 117.55,88.23 C119.08,77.01 120.02,74.45 122.91,73.53 C123.96,73.20 129.24,73.81 134.66,74.89 C140.07,75.97 153.27,78.48 164.00,80.48 C174.73,82.47 194.52,86.29 208.00,88.96 C221.48,91.63 239.48,95.03 248.00,96.52 C256.52,98.00 267.55,100.10 272.50,101.17 C286.82,104.28 295.98,106.01 303.50,107.04 C307.35,107.57 321.30,110.03 334.50,112.52 C347.70,115.00 365.92,118.38 375.00,120.02 C399.36,124.43 406.90,126.18 408.16,127.70 C409.70,129.54 408.69,142.66 405.61,161.00 C404.27,168.98 402.88,177.75 402.53,180.50 C402.18,183.25 400.78,192.70 399.42,201.50 C393.26,241.21 385.38,293.60 379.50,334.00 C377.01,351.09 374.93,364.82 371.05,389.84 C369.80,397.96 368.55,402.84 367.42,404.09 ZM 243.46 298.06 C244.25,296.79 245.51,289.70 248.46,270.00 C249.82,260.92 251.89,247.20 253.04,239.50 C254.20,231.80 255.45,225.20 255.83,224.84 C256.20,224.48 263.61,225.31 272.31,226.68 C281.00,228.06 289.13,228.93 290.37,228.62 C292.36,228.12 292.83,226.89 294.35,218.36 C295.57,211.45 295.75,208.46 294.97,207.98 C293.99,207.38 213.44,193.86 201.92,192.37 L 197.34 191.78 L 195.64 202.05 C194.70,207.71 194.30,212.70 194.74,213.14 C195.19,213.59 202.97,215.18 212.03,216.67 C221.09,218.16 228.66,219.49 228.86,219.63 C229.05,219.77 227.85,228.57 226.18,239.19 L 225.90 240.96 C218.02,291.15 217.58,293.95 218.66,294.78 C218.74,294.84 218.82,294.89 218.91,294.94 C219.63,295.39 223.66,296.30 227.86,296.96 C232.06,297.62 236.18,298.30 237.00,298.46 C240.25,299.12 242.91,298.96 243.46,298.06 ZM 363.80 209.91 C366.11,208.22 368.00,206.47 368.00,206.03 C368.00,205.28 364.57,200.07 357.78,190.50 C353.73,184.80 345.78,173.51 340.88,166.50 C338.57,163.20 334.36,157.35 331.52,153.50 C328.69,149.65 324.46,143.80 322.12,140.50 C319.78,137.20 314.27,129.55 309.87,123.50 C305.47,117.45 300.99,111.09 299.92,109.36 C298.22,106.62 297.13,106.07 291.24,105.05 C287.53,104.41 283.49,103.68 282.25,103.42 C281.01,103.17 280.00,103.32 280.00,103.76 C280.00,104.20 289.00,117.14 299.99,132.53 C310.99,147.91 328.37,172.31 338.63,186.75 C348.88,201.19 357.79,213.00 358.44,213.00 C359.08,213.00 361.49,211.61 363.80,209.91 ZM 288.00 300.69 C288.00,299.42 284.17,290.83 279.50,281.59 C274.83,272.35 271.00,264.22 271.00,263.52 C271.00,262.82 278.65,255.15 288.00,246.47 C297.35,237.79 305.00,230.35 305.00,229.94 C305.00,229.52 300.74,230.70 295.52,232.57 L 286.05 235.95 L 275.30 234.54 C267.74,233.55 264.17,233.44 263.28,234.18 C261.42,235.72 260.20,241.09 257.45,259.77 C256.10,268.97 254.73,277.90 254.41,279.61 C253.71,283.38 259.71,296.13 263.25,298.40 C265.43,299.80 279.69,302.72 285.25,302.91 C287.48,302.98 288.00,302.57 288.00,300.69 ZM 206.83 283.94 C210.52,281.01 212.08,279.00 212.47,276.69 C215.71,257.63 219.08,230.36 218.41,228.64 C218.10,227.82 213.55,226.30 207.26,224.90 C197.13,222.65 196.31,222.27 189.73,216.77 C185.93,213.60 182.39,211.00 181.87,211.00 C181.83,211.00 181.78,211.00 181.74,211.00 C181.60,210.99 181.49,210.99 181.42,211.04 C181.04,211.36 182.33,213.69 191.15,229.66 C191.64,230.55 192.16,231.48 192.70,232.46 C197.85,241.79 202.34,250.50 202.67,251.81 C203.18,253.86 201.38,256.10 190.03,267.47 C180.72,276.80 176.91,281.29 177.16,282.61 C177.44,284.10 179.22,284.86 185.51,286.17 C198.55,288.88 200.94,288.63 206.83,283.94 ZM 328.62 210.64 C330.59,195.86 329.99,192.32 324.66,187.15 C322.13,184.71 319.37,183.39 313.88,182.01 C305.17,179.82 291.14,177.52 290.49,178.18 C289.71,178.96 287.84,194.13 288.36,195.49 C288.65,196.25 292.35,197.27 297.45,197.99 C302.33,198.69 306.93,199.93 308.10,200.88 C310.03,202.44 310.10,203.10 309.27,211.85 C308.68,218.13 308.74,221.61 309.45,222.54 C310.85,224.37 325.22,225.99 326.21,224.43 C326.61,223.81 327.69,217.60 328.62,210.64 ZM 181.92 193.95 C182.51,191.17 183.00,188.36 183.01,187.70 C183.01,187.04 183.48,184.81 184.05,182.75 C185.05,179.16 185.28,179.00 189.30,179.05 C191.61,179.08 196.76,179.69 200.75,180.40 C204.74,181.12 208.02,181.66 208.05,181.60 C208.43,180.82 210.76,163.43 210.51,163.18 C209.28,161.95 191.26,159.00 184.95,159.00 C178.66,159.00 176.70,159.40 173.95,161.25 C168.16,165.16 166.76,169.22 163.66,191.25 C163.03,195.69 164.12,196.54 172.18,197.88 C172.46,197.93 172.73,197.97 173.00,198.02 C177.49,198.77 179.39,199.09 180.39,198.28 C181.18,197.65 181.41,196.32 181.92,193.95 ZM 303.59 329.02 C307.53,327.32 310.85,323.72 312.41,319.50 C313.65,316.14 315.97,296.56 315.21,295.86 C314.82,295.50 310.70,294.71 306.06,294.10 C299.84,293.28 297.44,293.29 296.93,294.11 C296.55,294.73 295.71,298.53 295.06,302.55 C294.41,306.57 293.21,310.41 292.40,311.08 C291.23,312.06 288.81,312.04 280.85,311.03 C272.46,309.96 270.64,309.97 269.94,311.09 C268.93,312.73 267.61,324.33 268.22,326.17 C268.76,327.78 292.04,331.97 296.50,331.27 C298.15,331.01 301.34,330.00 303.59,329.02 ZM 188.32 314.25 C188.56,313.84 189.07,310.07 189.45,305.87 L 190.15 298.23 L 182.32 296.51 C178.02,295.56 173.00,294.16 171.16,293.40 L 167.81 292.02 L 168.51 282.66 C168.56,282.06 168.60,281.51 168.64,280.98 C168.97,276.88 169.13,274.75 168.16,273.54 C166.98,272.08 164.13,271.97 157.86,271.37 C151.92,270.80 151.16,270.93 150.63,272.62 C149.53,276.15 148.04,288.49 148.02,294.25 C148.00,299.43 148.35,300.38 151.51,303.88 C153.44,306.01 157.24,308.72 159.96,309.89 C167.36,313.07 187.22,316.13 188.32,314.25 ZM 278.68 156.61 C278.14,155.21 242.08,104.56 236.87,97.89 C234.32,94.62 233.27,94.13 225.43,92.57 C220.69,91.63 216.65,91.01 216.47,91.20 C216.28,91.39 219.00,95.58 222.51,100.52 C226.02,105.46 230.49,111.75 232.44,114.50 C255.09,146.47 261.99,155.69 264.06,156.74 C267.61,158.53 279.38,158.43 278.68,156.61 ZM 357.80 266.28 C360.11,264.78 362.00,263.18 362.00,262.73 C362.00,261.49 332.96,220.00 332.09,220.00 C330.91,220.00 325.99,233.16 326.70,234.40 C329.75,239.68 351.56,269.00 352.45,269.00 C353.08,269.00 355.49,267.77 357.80,266.28 Z" fill="rgb(166,229,4)" data-index="2" style="opacity: 1;"></path>

</g>
</svg>